<svg width="34" height="39" viewBox="0 0 34 39" fill="none" xmlns="http://www.w3.org/2000/svg">
<g filter="url(#filter0_d_14_122)">
<path d="M17 0C13.526 0 10.7097 3.15837 10.7097 7.05441C10.7097 10.9505 13.526 14.1088 17 14.1088C20.474 14.1088 23.2903 10.9505 23.2903 7.05441C23.2903 3.15837 20.474 0 17 0Z" fill="white"/>
<path d="M10.2903 17.8712C6.81627 17.8712 4 21.0295 4 24.9256V27.1609C4 28.5779 4.91568 29.7861 6.16265 30.0144C13.34 31.3285 20.66 31.3285 27.8374 30.0144C29.0843 29.7861 30 28.5779 30 27.1609V24.9256C30 21.0295 27.1837 17.8712 23.7097 17.8712H23.1379C22.8284 17.8712 22.5209 17.9261 22.2267 18.0338L20.7749 18.5654C18.322 19.4637 15.678 19.4637 13.2251 18.5654L11.7733 18.0338C11.4791 17.9261 11.1716 17.8712 10.8621 17.8712H10.2903Z" fill="white"/>
</g>
<defs>
<filter id="filter0_d_14_122" x="0" y="0" width="34" height="39" filterUnits="userSpaceOnUse" color-interpolation-filters="sRGB">
<feFlood flood-opacity="0" result="BackgroundImageFix"/>
<feColorMatrix in="SourceAlpha" type="matrix" values="0 0 0 0 0 0 0 0 0 0 0 0 0 0 0 0 0 0 127 0" result="hardAlpha"/>
<feOffset dy="4"/>
<feGaussianBlur stdDeviation="2"/>
<feComposite in2="hardAlpha" operator="out"/>
<feColorMatrix type="matrix" values="0 0 0 0 0 0 0 0 0 0 0 0 0 0 0 0 0 0 0.25 0"/>
<feBlend mode="normal" in2="BackgroundImageFix" result="effect1_dropShadow_14_122"/>
<feBlend mode="normal" in="SourceGraphic" in2="effect1_dropShadow_14_122" result="shape"/>
</filter>
</defs>
</svg>
