<svg width="34" height="39" viewBox="0 0 34 39" fill="none" xmlns="http://www.w3.org/2000/svg">
<g filter="url(#filter0_d_14_129)">
<path d="M20.0728 1.30154C18.392 -0.433824 15.608 -0.433827 13.9272 1.30153L5.71744 9.77761C5.24594 10.2644 4.92911 10.8798 4.80685 11.5463C3.80981 16.9818 3.73621 22.5464 4.58916 28.0063L4.89113 29.9393C4.98652 30.5499 5.51255 31 6.13071 31H11.8673C12.3398 31 12.7227 30.6171 12.7227 30.1448V18.1723H21.2773V30.1448C21.2773 30.6171 21.6603 31 22.1327 31H27.8692C28.4874 31 29.0134 30.5499 29.1088 29.9393L29.4108 28.0063C30.2637 22.5464 30.1901 16.9818 29.1931 11.5463C29.0708 10.8798 28.754 10.2644 28.2825 9.77762L20.0728 1.30154Z" fill="white"/>
</g>
<defs>
<filter id="filter0_d_14_129" x="0" y="0" width="34" height="39" filterUnits="userSpaceOnUse" color-interpolation-filters="sRGB">
<feFlood flood-opacity="0" result="BackgroundImageFix"/>
<feColorMatrix in="SourceAlpha" type="matrix" values="0 0 0 0 0 0 0 0 0 0 0 0 0 0 0 0 0 0 127 0" result="hardAlpha"/>
<feOffset dy="4"/>
<feGaussianBlur stdDeviation="2"/>
<feComposite in2="hardAlpha" operator="out"/>
<feColorMatrix type="matrix" values="0 0 0 0 0 0 0 0 0 0 0 0 0 0 0 0 0 0 0.25 0"/>
<feBlend mode="normal" in2="BackgroundImageFix" result="effect1_dropShadow_14_129"/>
<feBlend mode="normal" in="SourceGraphic" in2="effect1_dropShadow_14_129" result="shape"/>
</filter>
</defs>
</svg>
