<svg width="42" height="46" viewBox="0 0 42 46" fill="none" xmlns="http://www.w3.org/2000/svg">
<g filter="url(#filter0_d_12_13)">
<path fill-rule="evenodd" clip-rule="evenodd" d="M22.7501 5.12502C22.7501 4.18153 21.9666 3.41669 21.0001 3.41669C20.0336 3.41669 19.2501 4.18153 19.2501 5.12502V6.40627H18.2746C14.3807 6.40627 11.1579 9.36171 10.9149 13.1555L10.5281 19.1918C10.3806 21.4932 9.58914 23.7111 8.23978 25.6038C7.02059 27.3139 8.10598 29.6758 10.2251 29.9241L16.1876 30.6225V32.4584C16.1876 35.0529 18.3422 37.1563 21.0001 37.1563C23.6579 37.1563 25.8126 35.0529 25.8126 32.4584V30.6225L31.775 29.9241C33.8942 29.6758 34.9795 27.3139 33.7604 25.6038C32.411 23.7111 31.6195 21.4932 31.472 19.1918L31.0853 13.1555C30.8422 9.36171 27.6194 6.40627 23.7255 6.40627H22.7501V5.12502ZM18.8126 32.4584C18.8126 33.6377 19.792 34.5938 21.0001 34.5938C22.2082 34.5938 23.1876 33.6377 23.1876 32.4584V31.1771H18.8126V32.4584Z" fill="white"/>
</g>
<g filter="url(#filter1_d_12_13)">
<path d="M37 10.5C37 14.0899 34.0899 17 30.5 17C26.9101 17 24 14.0899 24 10.5C24 6.91015 26.9101 4 30.5 4C34.0899 4 37 6.91015 37 10.5Z" fill="black"/>
</g>
<path d="M30.5 14.0994C29.965 14.0994 29.5092 13.9538 29.1328 13.6626C28.7564 13.3691 28.4688 12.9441 28.2699 12.3878C28.071 11.8291 27.9716 11.1544 27.9716 10.3636C27.9716 9.57765 28.071 8.90649 28.2699 8.35014C28.4711 7.79143 28.7599 7.36529 29.1364 7.07173C29.5152 6.7758 29.9697 6.62784 30.5 6.62784C31.0303 6.62784 31.4837 6.7758 31.8601 7.07173C32.2389 7.36529 32.5277 7.79143 32.7266 8.35014C32.9278 8.90649 33.0284 9.57765 33.0284 10.3636C33.0284 11.1544 32.929 11.8291 32.7301 12.3878C32.5312 12.9441 32.2436 13.3691 31.8672 13.6626C31.4908 13.9538 31.035 14.0994 30.5 14.0994ZM30.5 13.3182C31.0303 13.3182 31.4422 13.0625 31.7358 12.5511C32.0294 12.0398 32.1761 11.3106 32.1761 10.3636C32.1761 9.7339 32.1087 9.19768 31.9737 8.75497C31.8411 8.31226 31.6494 7.97491 31.3984 7.7429C31.1499 7.51089 30.8504 7.39489 30.5 7.39489C29.9744 7.39489 29.5637 7.65412 29.2678 8.17259C28.9718 8.68868 28.8239 9.41903 28.8239 10.3636C28.8239 10.9934 28.8902 11.5284 29.0227 11.9688C29.1553 12.4091 29.3459 12.7441 29.5945 12.9737C29.8454 13.2034 30.1473 13.3182 30.5 13.3182Z" fill="white"/>
<defs>
<filter id="filter0_d_12_13" x="3.72949" y="3.41669" width="34.5413" height="41.7396" filterUnits="userSpaceOnUse" color-interpolation-filters="sRGB">
<feFlood flood-opacity="0" result="BackgroundImageFix"/>
<feColorMatrix in="SourceAlpha" type="matrix" values="0 0 0 0 0 0 0 0 0 0 0 0 0 0 0 0 0 0 127 0" result="hardAlpha"/>
<feOffset dy="4"/>
<feGaussianBlur stdDeviation="2"/>
<feComposite in2="hardAlpha" operator="out"/>
<feColorMatrix type="matrix" values="0 0 0 0 0 0 0 0 0 0 0 0 0 0 0 0 0 0 0.25 0"/>
<feBlend mode="normal" in2="BackgroundImageFix" result="effect1_dropShadow_12_13"/>
<feBlend mode="normal" in="SourceGraphic" in2="effect1_dropShadow_12_13" result="shape"/>
</filter>
<filter id="filter1_d_12_13" x="20" y="4" width="21" height="21" filterUnits="userSpaceOnUse" color-interpolation-filters="sRGB">
<feFlood flood-opacity="0" result="BackgroundImageFix"/>
<feColorMatrix in="SourceAlpha" type="matrix" values="0 0 0 0 0 0 0 0 0 0 0 0 0 0 0 0 0 0 127 0" result="hardAlpha"/>
<feOffset dy="4"/>
<feGaussianBlur stdDeviation="2"/>
<feComposite in2="hardAlpha" operator="out"/>
<feColorMatrix type="matrix" values="0 0 0 0 0 0 0 0 0 0 0 0 0 0 0 0 0 0 0.25 0"/>
<feBlend mode="normal" in2="BackgroundImageFix" result="effect1_dropShadow_12_13"/>
<feBlend mode="normal" in="SourceGraphic" in2="effect1_dropShadow_12_13" result="shape"/>
</filter>
</defs>
</svg>
